<mxfile host="Electron" agent="Mozilla/5.0 (Windows NT 10.0; Win64; x64) AppleWebKit/537.36 (KHTML, like Gecko) draw.io/26.2.2 Chrome/134.0.6998.178 Electron/35.1.2 Safari/537.36" version="26.2.2">
  <diagram name="DFD Level 1 - Lajna Management System" id="0">
    <mxGraphModel dx="1310" dy="2032" grid="1" gridSize="10" guides="1" tooltips="1" connect="1" arrows="1" fold="1" page="1" pageScale="1" pageWidth="1920" pageHeight="1080" math="0" shadow="0">
      <root>
        <mxCell id="0" />
        <mxCell id="1" parent="0" />
        <mxCell id="2" value="President" style="shape=rect;whiteSpace=wrap;html=1;" parent="1" vertex="1">
          <mxGeometry x="30" y="40" width="140" height="60" as="geometry" />
        </mxCell>
        <mxCell id="3" value="Department Head" style="shape=rect;whiteSpace=wrap;html=1;" parent="1" vertex="1">
          <mxGeometry x="30" y="160" width="140" height="60" as="geometry" />
        </mxCell>
        <mxCell id="4" value="Member" style="shape=rect;whiteSpace=wrap;html=1;" parent="1" vertex="1">
          <mxGeometry x="30" y="260" width="140" height="60" as="geometry" />
        </mxCell>
        <mxCell id="5" value="Email Service" style="shape=rect;whiteSpace=wrap;html=1;" parent="1" vertex="1">
          <mxGeometry x="30" y="360" width="140" height="60" as="geometry" />
        </mxCell>
        <mxCell id="6" value="Google Forms/Sheets" style="shape=rect;whiteSpace=wrap;html=1;" parent="1" vertex="1">
          <mxGeometry x="30" y="460" width="140" height="60" as="geometry" />
        </mxCell>
        <mxCell id="8" value="1.0 Authenticate &amp; Authorize" style="rounded=1;whiteSpace=wrap;html=1;" parent="1" vertex="1">
          <mxGeometry x="610" y="60" width="230" height="70" as="geometry" />
        </mxCell>
        <mxCell id="9" value="2.0 User &amp;amp; Role Management" style="rounded=1;whiteSpace=wrap;html=1;" parent="1" vertex="1">
          <mxGeometry x="610" y="145" width="230" height="70" as="geometry" />
        </mxCell>
        <mxCell id="10" value="3.0 Documents &amp; Visibility" style="rounded=1;whiteSpace=wrap;html=1;" parent="1" vertex="1">
          <mxGeometry x="610" y="230" width="230" height="70" as="geometry" />
        </mxCell>
        <mxCell id="11" value="4.0 Announcements &amp; Email" style="rounded=1;whiteSpace=wrap;html=1;" parent="1" vertex="1">
          <mxGeometry x="610" y="315" width="230" height="70" as="geometry" />
        </mxCell>
        <mxCell id="12" value="5.0 Attendance Tracking" style="rounded=1;whiteSpace=wrap;html=1;" parent="1" vertex="1">
          <mxGeometry x="610" y="400" width="230" height="70" as="geometry" />
        </mxCell>
        <mxCell id="13" value="6.0 Reporting &amp; Analytics" style="rounded=1;whiteSpace=wrap;html=1;" parent="1" vertex="1">
          <mxGeometry x="610" y="485" width="230" height="70" as="geometry" />
        </mxCell>
        <mxCell id="14" value="7.0 Calendar &amp; Events" style="rounded=1;whiteSpace=wrap;html=1;" parent="1" vertex="1">
          <mxGeometry x="610" y="570" width="230" height="70" as="geometry" />
        </mxCell>
        <mxCell id="15" value="8.0 Member Profiles &amp;amp; Google Form" style="rounded=1;whiteSpace=wrap;html=1;" parent="1" vertex="1">
          <mxGeometry x="610" y="655" width="230" height="70" as="geometry" />
        </mxCell>
        <mxCell id="17" value="9.0 Audit &amp;amp; Backups" style="rounded=1;whiteSpace=wrap;html=1;" parent="1" vertex="1">
          <mxGeometry x="610" y="750" width="230" height="70" as="geometry" />
        </mxCell>
        <mxCell id="18" value="D1 Users &amp; Roles" style="ellipse;whiteSpace=wrap;html=1;" parent="1" vertex="1">
          <mxGeometry x="1080" y="60" width="190" height="60" as="geometry" />
        </mxCell>
        <mxCell id="19" value="D8 Profiles &amp;amp; Preferences" style="ellipse;whiteSpace=wrap;html=1;" parent="1" vertex="1">
          <mxGeometry x="1090" y="665" width="190" height="60" as="geometry" />
        </mxCell>
        <mxCell id="20" value="D5 Attendance Records" style="ellipse;whiteSpace=wrap;html=1;" parent="1" vertex="1">
          <mxGeometry x="1080" y="400" width="190" height="60" as="geometry" />
        </mxCell>
        <mxCell id="21" value="D3 Announcements" style="ellipse;whiteSpace=wrap;html=1;" parent="1" vertex="1">
          <mxGeometry x="1090" y="235" width="190" height="60" as="geometry" />
        </mxCell>
        <mxCell id="22" value="D2 Documents Repository" style="ellipse;whiteSpace=wrap;html=1;" parent="1" vertex="1">
          <mxGeometry x="1080" y="150" width="190" height="60" as="geometry" />
        </mxCell>
        <mxCell id="23" value="D6 Reports &amp; Aggregates" style="ellipse;whiteSpace=wrap;html=1;" parent="1" vertex="1">
          <mxGeometry x="1080" y="480" width="190" height="60" as="geometry" />
        </mxCell>
        <mxCell id="24" value="D7 Calendar" style="ellipse;whiteSpace=wrap;html=1;" parent="1" vertex="1">
          <mxGeometry x="1090" y="570" width="190" height="60" as="geometry" />
        </mxCell>
        <mxCell id="25" value="D9 Audit Logs" style="ellipse;whiteSpace=wrap;html=1;" parent="1" vertex="1">
          <mxGeometry x="1090" y="755" width="190" height="60" as="geometry" />
        </mxCell>
        <mxCell id="26" value="D4 Email Queue" style="ellipse;whiteSpace=wrap;html=1;" parent="1" vertex="1">
          <mxGeometry x="1090" y="320" width="190" height="60" as="geometry" />
        </mxCell>
        <mxCell id="28" value="CRUD" style="endArrow=classic;html=1;rounded=0;" parent="1" source="2" target="9" edge="1">
          <mxGeometry as="geometry" />
        </mxCell>
        <mxCell id="29" value="publish announcements" style="endArrow=classic;html=1;rounded=0;" parent="1" source="2" target="11" edge="1">
          <mxGeometry as="geometry" />
        </mxCell>
        <mxCell id="30" value="view org reports" style="endArrow=classic;html=1;rounded=0;" parent="1" source="2" target="13" edge="1">
          <mxGeometry as="geometry" />
        </mxCell>
        <mxCell id="31" value="mark attendance" style="endArrow=classic;html=1;rounded=0;" parent="1" source="3" target="12" edge="1">
          <mxGeometry as="geometry" />
        </mxCell>
        <mxCell id="32" value="upload documents" style="endArrow=classic;html=1;rounded=0;" parent="1" source="3" target="10" edge="1">
          <mxGeometry as="geometry" />
        </mxCell>
        <mxCell id="33" value="login credentials" style="endArrow=classic;html=1;rounded=0;" parent="1" source="4" target="8" edge="1">
          <mxGeometry as="geometry" />
        </mxCell>
        <mxCell id="34" value="update profile / complete survey" style="endArrow=classic;html=1;rounded=0;" parent="1" source="4" target="15" edge="1">
          <mxGeometry as="geometry" />
        </mxCell>
        <mxCell id="35" value="view events" style="endArrow=classic;html=1;rounded=0;" parent="1" source="4" target="14" edge="1">
          <mxGeometry as="geometry" />
        </mxCell>
        <mxCell id="37" value="delivery status" style="endArrow=classic;html=1;rounded=0;" parent="1" source="5" target="11" edge="1">
          <mxGeometry as="geometry" />
        </mxCell>
        <mxCell id="38" value="email notifications" style="endArrow=classic;html=1;rounded=0;" parent="1" source="11" target="5" edge="1">
          <mxGeometry as="geometry" />
        </mxCell>
        <mxCell id="39" value="monthly form data" style="endArrow=classic;html=1;rounded=0;" parent="1" source="6" target="13" edge="1">
          <mxGeometry as="geometry" />
        </mxCell>
        <mxCell id="42" value="verify user / lockout" style="endArrow=classic;html=1;rounded=0;" parent="1" source="8" target="18" edge="1">
          <mxGeometry as="geometry" />
        </mxCell>
        <mxCell id="43" value="create/update user" style="endArrow=classic;html=1;rounded=0;" parent="1" source="9" target="18" edge="1">
          <mxGeometry as="geometry" />
        </mxCell>
        <mxCell id="44" value="store/retrieve files" style="endArrow=classic;html=1;rounded=0;" parent="1" source="10" target="22" edge="1">
          <mxGeometry as="geometry" />
        </mxCell>
        <mxCell id="45" value="access logs" style="endArrow=classic;html=1;rounded=0;" parent="1" source="10" target="25" edge="1">
          <mxGeometry as="geometry" />
        </mxCell>
        <mxCell id="46" value="save announcement" style="endArrow=classic;html=1;rounded=0;" parent="1" source="11" target="21" edge="1">
          <mxGeometry as="geometry" />
        </mxCell>
        <mxCell id="47" value="queue emails" style="endArrow=classic;html=1;rounded=0;" parent="1" source="11" target="26" edge="1">
          <mxGeometry as="geometry" />
        </mxCell>
        <mxCell id="48" value="recording attendance" style="endArrow=classic;html=1;rounded=0;" parent="1" source="12" target="20" edge="1">
          <mxGeometry as="geometry" />
        </mxCell>
        <mxCell id="49" value="edit audit" style="endArrow=classic;html=1;rounded=0;" parent="1" source="12" target="25" edge="1">
          <mxGeometry as="geometry" />
        </mxCell>
        <mxCell id="50" value="aggregates" style="endArrow=classic;html=1;rounded=0;" parent="1" source="13" target="23" edge="1">
          <mxGeometry as="geometry" />
        </mxCell>
        <mxCell id="51" value="create/view events" style="endArrow=classic;html=1;rounded=0;" parent="1" source="14" target="24" edge="1">
          <mxGeometry as="geometry" />
        </mxCell>
        <mxCell id="52" value="profile changes" style="endArrow=classic;html=1;rounded=0;" parent="1" source="15" target="19" edge="1">
          <mxGeometry as="geometry" />
        </mxCell>
        <mxCell id="54" value="write/read audit" style="endArrow=classic;html=1;rounded=0;" parent="1" source="17" target="25" edge="1">
          <mxGeometry as="geometry" />
        </mxCell>
      </root>
    </mxGraphModel>
  </diagram>
</mxfile>
